# xmcd
#
# Track frame offsets: 
#        150
#        16940
#        34862
#        51839
#
# Disc length: 908 seconds
#
# Revision: 2
# Processed by: cddbd v1.5.2PL0 Copyright (c) Steve Scherf et al.
# Submitted via: ExactAudioCopy v1.0b3
#
DISCID=29038a04
DTITLE=Valentine - You and Me
DYEAR=2006
DGENRE=Beat
TTITLE0=You and Me (Radio Edit)
TTITLE1=You and Me (Acoustic Version)
TTITLE2=You and Me (Album Version)
TTITLE3=Consolation
EXTD=verbesserte verarbeitung
EXTT0=
EXTT1=
EXTT2=
EXTT3=
PLAYORDER=
